<?xml version="1.0" standalone="no"?>
<!DOCTYPE svg PUBLIC "-//W3C//DTD SVG 20010904//EN"
 "http://www.w3.org/TR/2001/REC-SVG-20010904/DTD/svg10.dtd">
<svg version="1.0" xmlns="http://www.w3.org/2000/svg"
 width="809.000000pt" height="360.000000pt" viewBox="0 0 809.000000 360.000000"
 preserveAspectRatio="xMidYMid meet">

<g transform="translate(0.000000,360.000000) scale(0.100000,-0.100000)"
fill="#000000" stroke="none">
<path d="M0 1800 l0 -1800 4045 0 4045 0 0 1800 0 1800 -4045 0 -4045 0 0
-1800z m5913 1400 c-3 -11 -7 -20 -9 -20 -2 0 -4 9 -4 20 0 11 4 20 9 20 5 0
7 -9 4 -20z m34 -2 c-3 -8 -6 -5 -6 6 -1 11 2 17 5 13 3 -3 4 -12 1 -19z m31
-13 c-3 -3 -9 2 -12 12 -6 14 -5 15 5 6 7 -7 10 -15 7 -18z m-940 -57 c-4 -29
-38 -38 -38 -10 0 22 8 32 27 32 9 0 13 -8 11 -22z m170 -3 c-2 -23 -28 -37
-28 -15 0 6 4 10 10 10 5 0 7 7 4 15 -4 8 -1 15 5 15 6 0 10 -11 9 -25z m1926
-40 c-6 -15 -34 -15 -34 0 0 19 23 37 31 23 4 -6 5 -16 3 -23z m80 0 c-6 -15
-32 -15 -30 -1 1 6 5 17 10 25 7 10 10 11 16 0 5 -6 6 -17 4 -24z m89 -2 c-3
-7 -14 -13 -24 -13 -20 0 -21 16 -4 36 12 14 35 -5 28 -23z m-253 7 c0 -13 -5
-18 -15 -14 -16 7 -19 17 -8 27 12 13 23 7 23 -13z m333 14 c9 -9 -4 -34 -18
-34 -17 0 -27 27 -12 34 17 7 23 7 30 0z m-1715 -39 c11 19 11 18 12 -7 0 -15
-5 -30 -12 -34 -7 -4 -8 -3 -4 4 4 7 1 12 -8 12 -8 0 -17 -6 -19 -12 -4 -8 -6
-7 -6 4 -1 9 2 24 6 34 6 16 7 16 13 -1 7 -19 7 -19 18 0z m41 -15 c-14 -38
-19 -38 -16 0 1 16 7 30 14 30 9 0 9 -8 2 -30z m41 10 c0 -11 -4 -20 -10 -20
-5 0 -10 9 -10 20 0 11 5 20 10 20 6 0 10 -9 10 -20z m29 -17 c0 -33 -1 -35
-9 -15 -8 20 -4 52 6 52 2 0 4 -17 3 -37z m72 23 c-9 -11 -9 -15 0 -18 16 -5
4 -38 -13 -38 -9 0 -9 3 2 10 11 7 12 12 3 21 -13 13 -7 39 9 39 6 0 6 -6 -1
-14z m249 -6 c27 -27 25 -62 -6 -99 -40 -48 -88 -36 -100 26 -5 27 -1 37 24
63 36 35 54 38 82 10z m-297 -11 c-4 -12 0 -25 8 -30 11 -7 10 -9 -3 -9 -18 0
-26 39 -11 53 10 11 11 8 6 -14z m982 11 c3 -5 1 -10 -4 -10 -6 0 -11 5 -11
10 0 6 2 10 4 10 3 0 8 -4 11 -10z m-1025 -30 c0 -5 -5 -10 -11 -10 -5 0 -7 5
-4 10 3 6 8 10 11 10 2 0 4 -4 4 -10z m407 -16 c-3 -3 -12 -4 -19 -1 -8 3 -5
6 6 6 11 1 17 -2 13 -5z m60 0 c-3 -3 -12 -4 -19 -1 -8 3 -5 6 6 6 11 1 17 -2
13 -5z m10 -30 c-3 -3 -12 -4 -19 -1 -8 3 -5 6 6 6 11 1 17 -2 13 -5z m618
-34 c-3 -5 -13 -10 -21 -10 -8 0 -14 5 -14 10 0 6 9 10 21 10 11 0 17 -4 14
-10z m90 0 c4 -6 -7 -10 -24 -10 -17 0 -31 5 -31 10 0 6 11 10 24 10 14 0 28
-4 31 -10z m110 -5 c6 -2 -14 -4 -43 -4 -29 -1 -51 3 -48 7 4 7 67 5 91 -3z
m124 -1 c11 -10 -8 -11 -59 -6 -52 6 -53 6 -20 13 32 6 69 2 79 -7z m-2344 -3
c3 -5 2 -12 -3 -15 -5 -3 -9 1 -9 9 0 17 3 19 12 6z m41 -16 c-3 -8 -1 -15 4
-15 6 0 10 5 10 11 0 5 5 7 10 4 6 -3 10 -14 10 -23 0 -10 -3 -13 -8 -7 -4 6
-17 10 -29 9 -18 -1 -20 1 -10 17 14 23 21 25 13 4z m1974 -5 c12 -8 9 -10
-12 -10 -16 0 -28 5 -28 10 0 13 20 13 40 0z m128 -7 c-10 -2 -28 -2 -40 0
-13 2 -5 4 17 4 22 1 32 -1 23 -4z m75 0 c-7 -2 -21 -2 -30 0 -10 3 -4 5 12 5
17 0 24 -2 18 -5z m-2618 -23 c4 -7 13 -7 26 0 11 6 24 8 29 5 15 -9 1 -27
-16 -21 -8 3 -14 2 -14 -2 0 -4 -9 -8 -19 -8 -11 0 -18 4 -15 8 2 4 -4 11 -13
17 -16 9 -16 10 -1 11 9 0 20 -5 23 -10z m2425 -6 c0 -2 -11 -4 -25 -4 -14 0
-25 4 -25 9 0 4 11 6 25 3 14 -2 25 -6 25 -8z m108 -1 c-15 -2 -42 -2 -60 0
-18 2 -6 4 27 4 33 0 48 -2 33 -4z m-2558 -7 c0 -3 -4 -8 -10 -11 -5 -3 -10
-1 -10 4 0 6 5 11 10 11 6 0 10 -2 10 -4z m2500 -24 c0 -4 -16 -6 -35 -4 -19
2 -35 6 -35 8 0 2 16 4 35 4 19 0 35 -4 35 -8z m70 -2 c0 -5 -11 -10 -25 -10
-14 0 -25 5 -25 10 0 6 11 10 25 10 14 0 25 -4 25 -10z m-80 -30 c0 -5 -13
-10 -30 -10 -16 0 -30 5 -30 10 0 6 14 10 30 10 17 0 30 -4 30 -10z m35 0 c-3
-5 -10 -10 -16 -10 -5 0 -9 5 -9 10 0 6 7 10 16 10 8 0 12 -4 9 -10z m75 0 c0
-5 -13 -10 -30 -10 -16 0 -30 5 -30 10 0 6 14 10 30 10 17 0 30 -4 30 -10z
m-80 -30 c0 -5 -16 -10 -35 -10 -19 0 -35 5 -35 10 0 6 16 10 35 10 19 0 35
-4 35 -10z m100 -8 c0 -9 -6 -12 -16 -8 -9 3 -29 6 -45 6 -16 0 -29 4 -29 9 0
4 20 8 45 7 31 0 45 -5 45 -14z m70 -2 c-20 -13 -60 -13 -60 0 0 6 17 10 38
10 27 0 33 -3 22 -10z m-2772 -20 c4 -12 62 -14 62 -1 0 14 40 21 63 11 12 -5
18 -9 13 -9 -5 -1 -3 -7 3 -15 9 -10 7 -16 -5 -27 -11 -9 -17 -10 -22 -1 -7
10 -248 33 -257 24 -2 -2 -1 -10 2 -18 3 -10 22 -14 59 -14 30 0 54 -4 54 -10
0 -5 -4 -10 -10 -10 -5 0 -10 -7 -10 -15 0 -8 -4 -15 -10 -15 -14 0 -13 -43 1
-57 13 -13 3 -34 -14 -32 -7 1 -27 1 -45 0 -29 -1 -32 -3 -19 -16 9 -9 46 -17
96 -21 45 -4 84 -11 87 -15 5 -8 -99 -3 -166 8 -19 3 -56 5 -82 4 l-48 -2 6
30 c4 21 3 31 -5 31 -7 0 -10 -4 -7 -9 10 -16 -28 -69 -52 -74 -19 -4 -23 -1
-19 14 3 12 0 19 -9 19 -21 0 -17 21 5 27 18 5 30 39 36 105 1 10 4 21 8 24
11 11 8 44 -3 44 -5 0 -10 9 -10 21 0 20 4 20 147 15 87 -3 149 -10 151 -16z
m2552 0 c0 -5 -7 -10 -16 -10 -8 0 -12 5 -9 10 3 6 10 10 16 10 5 0 9 -4 9
-10z m45 0 c3 -5 -3 -10 -14 -10 -12 0 -21 5 -21 10 0 6 6 10 14 10 8 0 18 -4
21 -10z m-976 -20 c129 -6 236 -12 239 -15 3 -3 2 -8 -1 -12 -7 -6 -586 21
-782 37 -119 10 174 4 544 -10z m1011 16 c0 -3 -4 -8 -10 -11 -5 -3 -10 -1
-10 4 0 6 5 11 10 11 6 0 10 -2 10 -4z m50 -6 c0 -5 -6 -10 -14 -10 -8 0 -18
5 -21 10 -3 6 3 10 14 10 12 0 21 -4 21 -10z m-3032 -15 c1 -1 0 -8 -3 -16 -4
-11 -24 -13 -88 -11 -98 4 -108 6 -101 27 6 14 19 15 98 9 50 -3 92 -8 94 -9z
m622 -10 c0 -8 -7 -15 -15 -15 -8 0 -15 7 -15 15 0 8 7 15 15 15 8 0 15 -7 15
-15z m2296 2 c4 -4 -5 -7 -19 -7 -15 0 -27 4 -27 8 0 10 36 9 46 -1z m34 -7
c0 -5 -4 -10 -10 -10 -5 0 -10 5 -10 10 0 6 5 10 10 10 6 0 10 -4 10 -10z
m115 0 c-3 -5 -24 -10 -46 -10 -21 0 -39 5 -39 10 0 6 21 10 46 10 27 0 43 -4
39 -10z m-2201 -6 c11 -4 16 -19 16 -45 0 -38 -1 -39 -36 -39 l-36 0 7 37 c10
55 15 60 49 47z m2096 -22 c0 -12 -88 -14 -95 -2 -4 6 13 10 44 10 28 0 51 -4
51 -8z m40 -2 c0 -5 -4 -10 -10 -10 -5 0 -10 5 -10 10 0 6 5 10 10 10 6 0 10
-4 10 -10z m60 0 c0 -5 -12 -10 -26 -10 -14 0 -23 4 -19 10 3 6 15 10 26 10
10 0 19 -4 19 -10z m34 -11 c-3 -5 -10 -7 -15 -3 -5 3 -7 10 -3 15 3 5 10 7
15 3 5 -3 7 -10 3 -15z m-3117 3 c7 -4 9 -13 4 -20 -6 -10 -30 -11 -99 -6 -87
6 -101 11 -85 27 9 10 165 8 180 -1z m3256 -33 c24 -20 17 -49 -13 -49 -12 0
-20 -7 -20 -17 0 -9 -3 -14 -6 -10 -4 3 -3 32 1 64 4 32 10 51 13 43 2 -8 14
-22 25 -31z m93 -25 c-6 -27 -11 -34 -29 -33 -17 1 -18 2 -4 6 10 3 17 14 17
28 0 13 3 31 7 41 10 27 16 -1 9 -42z m-2975 9 c-10 -17 -10 -16 -11 3 0 23
13 41 18 25 2 -6 -1 -18 -7 -28z m54 23 c10 15 16 16 28 6 12 -10 16 -10 20 0
4 10 7 10 18 -1 12 -12 12 -13 0 -6 -11 6 -13 4 -8 -8 4 -10 1 -17 -6 -17 -8
0 -6 -4 3 -10 13 -8 12 -10 -2 -10 -10 0 -18 7 -18 17 0 15 -2 14 -15 -3 -11
-15 -17 -16 -23 -6 -5 7 -16 10 -25 6 -20 -7 -21 0 -5 29 11 20 12 20 16 4 4
-18 4 -18 17 -1z m2545 4 c0 -5 -16 -10 -35 -10 -19 0 -35 5 -35 10 0 6 16 10
35 10 19 0 35 -4 35 -10z m65 0 c4 -6 -5 -10 -20 -10 -15 0 -24 4 -20 10 3 6
12 10 20 10 8 0 17 -4 20 -10z m369 -2 c3 -7 7 -29 10 -48 5 -31 4 -33 -8 -17
-16 20 -32 22 -39 5 -2 -7 -7 -11 -10 -8 -7 7 23 80 34 80 5 0 11 -6 13 -12z
m63 -17 c7 18 15 30 19 27 3 -3 -4 -25 -16 -49 -25 -48 -40 -40 -39 21 l1 35
11 -33 12 -33 12 32z m71 -13 c10 -51 8 -56 -14 -34 -15 16 -17 16 -30 -1 -7
-10 -14 -15 -14 -11 0 16 33 88 40 88 5 0 13 -19 18 -42z m85 36 c9 -10 -4
-34 -18 -34 -17 0 -28 17 -20 30 7 11 28 13 38 4z m-3085 -34 c-1 -17 -5 -27
-9 -23 -7 7 -2 53 6 53 2 0 3 -14 3 -30z m52 20 c-8 -5 -10 -10 -5 -10 6 0 3
-5 -5 -10 -13 -9 -13 -11 0 -20 13 -8 12 -10 -2 -10 -10 0 -18 6 -18 14 0 27
12 46 29 46 14 0 14 -2 1 -10z m60 -18 c0 -21 -5 -28 -19 -28 -18 0 -18 2 -5
28 8 15 17 28 19 28 3 0 5 -13 5 -28z m50 6 c7 -18 9 -19 9 -5 1 9 7 17 15 17
19 0 29 -17 16 -25 -5 -3 -10 0 -11 7 0 7 -5 2 -11 -12 -6 -15 -12 -20 -15
-12 -3 6 -11 12 -18 12 -7 0 -16 -6 -18 -12 -4 -8 -6 -7 -6 4 -1 23 9 48 20
48 5 0 14 -10 19 -22z m1849 16 c24 -5 37 -16 52 -47 l21 -40 -29 -40 c-22
-33 -38 -43 -77 -53 -28 -7 -52 -11 -56 -9 -10 6 -83 115 -79 119 24 20 116
76 125 76 6 0 26 -3 43 -6z m551 -3 c0 -5 -9 -7 -20 -4 -11 3 -20 7 -20 9 0 2
9 4 20 4 11 0 20 -4 20 -9z m45 -1 c-3 -5 -10 -10 -16 -10 -5 0 -9 5 -9 10 0
6 7 10 16 10 8 0 12 -4 9 -10z m-1995 -20 c19 -6 11 -8 -32 -9 -33 -1 -58 3
-58 9 0 12 54 12 90 0z m1815 0 c4 -6 -8 -10 -29 -10 -20 0 -36 5 -36 10 0 6
13 10 29 10 17 0 33 -4 36 -10z m91 0 c14 0 22 -4 19 -10 -8 -12 -72 -13 -79
-1 -8 12 6 22 22 16 7 -3 25 -5 38 -5z m-1726 -10 c0 -6 -26 -10 -59 -10 -33
0 -63 5 -66 10 -4 6 18 10 59 10 37 0 66 -4 66 -10z m230 -15 c-3 -5 -16 -9
-30 -9 -14 1 -56 3 -95 4 -72 3 -88 6 -81 18 7 11 212 -2 206 -13z m1550 15
c0 -5 -4 -10 -10 -10 -5 0 -10 5 -10 10 0 6 5 10 10 10 6 0 10 -4 10 -10z m50
0 c0 -5 -9 -10 -20 -10 -11 0 -20 5 -20 10 0 6 9 10 20 10 11 0 20 -4 20 -10z
m478 -12 c16 -16 -3 -38 -34 -38 -26 0 -38 14 -30 35 6 18 47 20 64 3z m-1844
-4 c9 -3 16 -11 16 -16 0 -7 -27 -8 -72 -5 -40 4 -92 6 -115 7 -24 0 -43 5
-43 10 0 11 187 14 214 4z m1209 -4 c33 0 57 -4 57 -11 0 -6 -22 -9 -57 -7
-42 2 -57 0 -55 -9 1 -9 -9 -13 -30 -12 -31 1 -32 1 -8 9 l25 8 -22 7 c-29 9
-18 29 11 21 11 -3 47 -6 79 -6z m-1785 -9 c2 -1 1 -4 -1 -8 -3 -5 -28 -6 -56
-5 -30 3 -49 8 -45 14 5 7 62 7 102 -1z m1922 -1 c20 -6 16 -8 -23 -9 -30 -1
-46 3 -42 9 7 11 29 11 65 0z m-3200 -21 c0 -19 -4 -21 -37 -15 -21 3 -46 6
-55 6 -10 0 -18 7 -18 15 0 12 13 15 55 15 49 0 55 -2 55 -21z m1370 11 c0 -5
-9 -10 -20 -10 -11 0 -20 5 -20 10 0 6 9 10 20 10 11 0 20 -4 20 -10z m145
-11 c5 -5 -16 -9 -53 -9 -50 0 -62 3 -62 16 0 13 8 15 53 9 28 -4 56 -11 62
-16z m-587 -15 c0 -15 -5 -20 -17 -17 -9 2 -17 13 -17 23 0 11 7 18 17 17 10
-1 17 -10 17 -23z m932 10 c68 -3 123 -9 189 -19 13 -2 26 -7 30 -11 3 -4 -46
-4 -109 -1 -63 4 -179 10 -257 13 -114 6 -143 10 -143 21 0 12 18 14 108 8 59
-3 141 -8 182 -11z m1235 -4 c4 -6 -8 -10 -29 -10 -20 0 -36 5 -36 10 0 6 13
10 29 10 17 0 33 -4 36 -10z m125 -1 c14 -1 5 -5 -20 -8 -52 -7 -80 -3 -80 11
0 7 15 8 38 4 20 -3 48 -7 62 -7z m-1960 -9 c19 -6 11 -8 -32 -9 -33 -1 -58 3
-58 9 0 12 54 12 90 0z m252 -10 c15 0 28 -4 28 -10 0 -11 -93 -13 -164 -4
-79 11 -54 28 31 20 42 -3 89 -6 105 -6z m1503 -10 c-3 -6 -20 -8 -38 -5 -47
9 -46 15 2 15 26 0 40 -4 36 -10z m45 0 c0 -5 -7 -10 -15 -10 -8 0 -15 5 -15
10 0 6 7 10 15 10 8 0 15 -4 15 -10z m-1680 -31 c0 -11 -137 -12 -144 0 -3 4
-4 10 -2 12 8 8 146 -3 146 -12z m1581 11 c16 0 29 -4 29 -10 0 -5 -22 -10
-50 -10 -47 0 -60 7 -43 24 4 3 13 4 21 1 7 -3 27 -5 43 -5z m-1431 -21 c9 -5
-10 -9 -52 -9 -51 0 -68 3 -68 14 0 10 13 12 53 8 28 -2 59 -8 67 -13z m1520
11 c0 -5 -9 -10 -20 -10 -11 0 -20 5 -20 10 0 6 9 10 20 10 11 0 20 -4 20 -10z
m101 -20 c14 -16 16 -17 27 -1 9 14 11 13 11 -6 1 -13 6 -23 12 -23 6 0 9 -6
6 -12 -4 -15 -68 -12 -78 3 -3 5 -34 10 -69 12 -43 1 -65 6 -68 16 -4 11 5 12
41 7 42 -7 45 -6 40 13 -5 19 -2 20 28 15 19 -3 41 -14 50 -24z m-771 -1 c0
-5 -7 -9 -15 -9 -15 0 -20 12 -9 23 8 8 24 -1 24 -14z m-2356 -14 c3 -8 1 -15
-4 -15 -6 0 -10 7 -10 15 0 8 2 15 4 15 2 0 6 -7 10 -15z m1282 5 c25 0 44 -5
44 -11 0 -10 -105 -12 -123 -2 -13 8 5 25 20 19 8 -3 35 -6 59 -6z m1664 0 c0
-5 -18 -10 -40 -10 -22 0 -40 5 -40 10 0 6 18 10 40 10 22 0 40 -4 40 -10z
m306 -30 c8 0 14 -4 14 -10 0 -5 -16 -10 -35 -10 -19 0 -35 5 -35 10 0 6 7 10
15 10 8 0 16 8 16 18 1 16 2 16 6 0 2 -10 11 -18 19 -18z m-1509 0 c140 -15
109 -23 -57 -16 -193 8 -260 15 -260 28 0 11 150 5 317 -12z m1163 0 c12 -8 9
-10 -12 -10 -16 0 -28 5 -28 10 0 13 20 13 40 0z m64 4 c40 -15 5 -27 -42 -15
-2 1 0 6 3 11 7 12 17 12 39 4z m-1676 -14 c28 0 52 -4 52 -10 0 -6 -32 -10
-75 -10 -62 0 -75 3 -75 16 0 12 6 15 23 10 12 -3 46 -6 75 -6z m122 -21 c0
-5 -9 -9 -20 -9 -11 0 -20 6 -20 14 0 9 7 12 20 9 11 -3 20 -9 20 -14z m1990
6 c0 -8 -4 -15 -10 -15 -5 0 -10 7 -10 15 0 8 5 15 10 15 6 0 10 -7 10 -15z
m-3400 -9 c0 -8 8 -17 18 -19 10 -3 5 -6 -13 -7 l-30 -2 30 -8 c29 -7 29 -8
-9 -9 -36 -1 -38 1 -34 23 4 19 0 26 -16 29 -12 2 -4 5 17 6 26 1 37 -3 37
-13z m88 -1 c3 -3 -11 -5 -31 -5 -20 0 -37 4 -37 9 0 8 59 5 68 -4z m1450 0
c12 -12 -9 -17 -43 -11 -47 9 -47 31 1 23 20 -3 39 -9 42 -12z m1322 5 c0 -5
-13 -10 -30 -10 -16 0 -30 5 -30 10 0 6 14 10 30 10 17 0 30 -4 30 -10z
m-2759 -27 c-12 -20 -14 -14 -5 12 4 9 9 14 11 11 3 -2 0 -13 -6 -23z m1584
18 l30 -7 -27 -7 c-31 -8 -118 2 -118 14 0 10 70 10 115 0z m1505 -1 c11 -7 0
-10 -37 -10 -29 0 -53 5 -53 10 0 13 70 13 90 0z m-1907 -10 c26 0 47 -4 47
-10 0 -12 -137 -14 -144 -1 -9 13 7 23 29 17 11 -3 41 -6 68 -6z m772 0 c3 -5
1 -10 -4 -10 -6 0 -11 5 -11 10 0 6 2 10 4 10 3 0 8 -4 11 -10z m1430 -12 c7
-7 -25 -9 -105 -4 -63 3 -128 6 -143 6 -18 0 -26 4 -21 11 9 15 254 2 269 -13z
m-3405 -2 c0 -8 6 -17 13 -20 6 -3 -1 -4 -17 -3 -16 1 -31 8 -34 15 -2 8 2 10
14 5 12 -4 15 -3 10 5 -4 7 -2 12 3 12 6 0 11 -6 11 -14z m1304 8 c23 -9 20
-24 -4 -24 -11 0 -20 7 -20 15 0 17 2 18 24 9z m-945 -55 c1 -5 -64 -39 -75
-39 -7 0 4 69 13 83 4 7 61 -32 62 -44z m1069 45 c29 -8 28 -24 -2 -24 -33 0
-57 10 -50 21 6 10 20 11 52 3z m1705 -7 c4 3 6 -11 4 -31 -2 -19 0 -37 6 -39
6 -2 3 -14 -7 -29 -9 -14 -15 -32 -14 -39 2 -8 -3 -14 -9 -13 -7 1 -25 2 -39
3 -14 0 -22 5 -19 11 3 6 17 7 31 4 14 -4 24 -2 24 5 0 6 -11 11 -25 11 -14 0
-25 5 -25 11 0 7 10 9 25 7 14 -3 25 -1 25 3 0 5 -11 9 -25 9 -37 0 -30 20 8
21 30 2 30 2 5 6 -35 5 -37 23 -3 23 14 0 25 5 25 10 0 6 -25 10 -55 10 -49 0
-65 7 -50 22 3 2 28 1 57 -3 29 -3 57 -4 61 -2z m-1559 -3 c31 -5 43 -10 34
-15 -26 -17 -128 -7 -128 12 0 11 30 11 94 3z m753 0 c-3 -3 -12 -4 -19 -1 -8
3 -5 6 6 6 11 1 17 -2 13 -5z m-1134 -14 c26 0 47 -4 47 -10 0 -11 -81 -13
-117 -4 -13 4 -23 11 -23 16 0 6 10 8 23 4 12 -3 43 -6 70 -6z m2017 0 c0 -5
-11 -10 -25 -10 -14 0 -25 5 -25 10 0 6 11 10 25 10 14 0 25 -4 25 -10z m88 4
c38 -10 24 -19 -23 -16 -25 2 -45 8 -45 13 0 10 34 12 68 3z m-3313 -14 c17
-7 16 -9 -10 -10 -26 -1 -27 -3 -10 -10 17 -7 14 -9 -15 -11 l-35 -2 40 -7 40
-7 -47 -2 c-50 -1 -58 7 -33 32 11 12 12 17 2 20 -6 3 2 5 18 6 17 0 39 -4 50
-9z m1329 -11 c-7 -11 -44 -12 -44 -1 0 15 11 20 30 15 11 -3 17 -9 14 -14z
m1299 14 c-7 -2 -19 -2 -25 0 -7 3 -2 5 12 5 14 0 19 -2 13 -5z m-1164 -19 c2
-2 2 -7 -2 -10 -9 -10 -77 5 -77 17 0 9 68 3 79 -7z m166 -15 c5 -5 -12 -9
-47 -9 -62 0 -88 7 -88 22 0 13 120 1 135 -13z m1615 5 c0 -11 -5 -14 -16 -10
-9 3 -27 6 -40 6 -14 0 -22 4 -19 10 3 6 22 10 41 10 25 0 34 -4 34 -16z
m-2044 -4 c30 0 54 -4 54 -10 0 -11 -71 -13 -119 -4 -17 4 -28 11 -25 16 3 5
13 7 21 4 8 -3 39 -6 69 -6z m2192 -2 c-3 -7 -10 -13 -16 -12 -7 1 -34 2 -62
3 -75 2 -61 21 16 21 48 0 65 -3 62 -12z m95 3 c36 -1 47 -5 47 -17 0 -12 -6
-15 -22 -10 -13 3 -42 6 -65 6 -30 0 -43 4 -43 14 0 8 8 13 18 11 9 -2 38 -4
65 -4z m-2163 -22 c0 -5 -9 -9 -20 -9 -11 0 -20 6 -20 14 0 9 7 12 20 9 11 -3
20 -9 20 -14z m113 2 c9 -1 17 -6 17 -12 0 -15 -72 -7 -78 9 -2 8 4 11 20 8
12 -3 31 -5 41 -5z m1757 -1 c0 -5 -5 -10 -11 -10 -5 0 -7 5 -4 10 3 6 8 10
11 10 2 0 4 -4 4 -10z m-1570 -20 c10 -6 -6 -9 -47 -10 -66 0 -93 6 -93 22 0
12 116 2 140 -12z m1600 10 c0 -5 -4 -10 -10 -10 -5 0 -10 5 -10 10 0 6 5 10
10 10 6 0 10 -4 10 -10z m70 0 c0 -5 -13 -10 -30 -10 -16 0 -30 5 -30 10 0 6
14 10 30 10 17 0 30 -4 30 -10z m22 -12 c-7 -7 -12 -8 -12 -2 0 14 12 26 19
19 2 -3 -1 -11 -7 -17z m-3325 -8 c-1 -13 -9 -20 -22 -21 -20 0 -20 0 0 -9 18
-8 18 -9 -5 -9 -14 0 -34 4 -45 9 -18 8 -18 9 5 10 l25 2 -25 8 c-22 7 -20 8
15 10 l40 3 -35 7 -35 7 42 2 c36 1 42 -2 40 -19z m1258 -1 c5 -5 -7 -9 -30
-9 -54 0 -115 11 -115 20 0 10 132 0 145 -11z m65 -9 c0 -5 -9 -10 -20 -10
-11 0 -20 5 -20 10 0 6 9 10 20 10 11 0 20 -4 20 -10z m118 0 c19 0 23 -3 15
-11 -14 -14 -65 -7 -71 10 -3 10 0 12 12 8 10 -4 29 -7 44 -7z m1762 0 c0 -5
-4 -10 -9 -10 -6 0 -13 5 -16 10 -3 6 1 10 9 10 9 0 16 -4 16 -10z m81 3 c26
-5 29 -8 15 -13 -24 -8 -76 0 -76 11 0 11 16 11 61 2z m-1656 -24 c13 -5 -8
-8 -57 -8 -71 -1 -97 7 -81 23 8 8 108 -3 138 -15z m1765 11 c0 -5 -16 -10
-35 -10 -19 0 -35 5 -35 10 0 6 16 10 35 10 19 0 35 -4 35 -10z m-2184 -10
c24 0 44 -4 44 -10 0 -5 -17 -10 -37 -10 -57 0 -113 11 -113 23 0 5 13 7 31 3
17 -3 51 -6 75 -6z m184 -16 c29 -10 -8 -19 -59 -16 -33 3 -51 8 -51 17 0 9
13 11 48 8 26 -3 54 -7 62 -9z m1845 -4 c-6 -17 -2 -20 29 -20 20 0 36 -4 36
-10 0 -11 -81 -12 -120 -1 -24 7 -24 7 -5 19 17 10 18 11 3 12 -10 0 -18 5
-18 10 0 6 18 10 41 10 36 0 40 -2 34 -20z m145 -3 c0 -8 -20 -11 -65 -9 -58
3 -74 9 -61 23 10 10 126 -3 126 -14z m-3391 -3 c2 -2 -14 -4 -37 -4 -22 0
-44 5 -47 10 -6 10 73 3 84 -6z m3492 6 c35 0 49 -4 49 -14 0 -11 -14 -13 -67
-9 -38 3 -70 7 -72 9 -9 8 13 25 26 20 8 -3 37 -6 64 -6z m-2041 -10 c0 -5 -2
-10 -4 -10 -3 0 -8 5 -11 10 -3 6 -1 10 4 10 6 0 11 -4 11 -10z m182 -3 c39
-1 58 -6 58 -15 0 -9 -16 -11 -67 -7 -103 9 -133 15 -133 26 0 6 17 8 43 4 23
-3 68 -7 99 -8z m1498 3 c15 0 18 -6 15 -30 -2 -16 1 -32 6 -35 15 -10 10 -25
-8 -26 -17 -1 -17 -2 0 -6 26 -7 20 -23 -9 -23 -21 0 -24 4 -19 20 5 16 2 20
-19 20 -38 0 -32 20 7 22 l32 1 -32 4 c-18 2 -33 8 -33 14 0 5 15 9 33 10 l32
1 -27 10 c-16 5 -28 14 -28 20 0 6 7 7 16 4 9 -3 24 -6 34 -6z m-3140 -16 c0
-2 -18 -4 -40 -4 -22 0 -40 3 -40 8 0 4 18 6 40 4 22 -2 40 -6 40 -8z m1278 0
c62 -3 115 -11 119 -17 4 -7 -27 -8 -93 -3 -136 9 -184 17 -184 28 0 6 10 8
23 5 12 -3 73 -9 135 -13z m1660 -11 c-5 -24 -27 -28 -25 -4 1 12 7 21 15 21
7 0 12 -8 10 -17z m-2928 -13 c10 -7 -2 -8 -40 -4 -30 4 -57 8 -59 10 -10 9
86 3 99 -6z m170 0 c0 -5 -2 -10 -4 -10 -3 0 -8 5 -11 10 -3 6 -1 10 4 10 6 0
11 -4 11 -10z m1376 -3 c15 -15 -7 -19 -65 -12 -80 9 -81 29 -1 23 33 -2 63
-7 66 -11z m1705 3 c38 0 49 -3 49 -16 0 -11 -5 -14 -16 -10 -9 3 -38 6 -65 6
-38 0 -49 3 -49 16 0 11 5 14 16 10 9 -3 38 -6 65 -6z m-3034 -6 c-3 -3 -12
-4 -19 -1 -8 3 -5 6 6 6 11 1 17 -2 13 -5z m1002 -10 c2 -2 2 -7 -1 -10 -9 -9
-118 7 -118 17 0 8 109 1 119 -7z m527 1 c99 -15 80 -26 -31 -20 -114 7 -129
10 -119 26 5 9 56 7 150 -6z m-1781 -5 c3 -5 0 -10 -7 -11 -7 0 -4 -4 7 -9 16
-7 14 -9 -15 -9 -42 -1 -80 18 -40 20 23 0 23 1 5 9 -17 7 -15 9 12 9 17 1 35
-3 38 -9z m1385 -11 c9 -5 -6 -9 -42 -9 -45 0 -58 3 -58 15 0 12 8 14 43 9 23
-4 49 -10 57 -15z m-1305 1 c7 -11 -9 -11 -45 0 -24 8 -24 8 7 9 17 1 35 -3
38 -9z m1545 -20 c10 -7 -3 -9 -41 -10 -77 0 -149 11 -149 23 0 12 166 0 190
-13z m360 10 c0 -5 -20 -10 -45 -10 -25 0 -45 5 -45 10 0 6 20 10 45 10 25 0
45 -4 45 -10z m1305 0 c4 -6 -12 -10 -39 -10 -25 0 -46 5 -46 10 0 6 18 10 39
10 22 0 43 -4 46 -10z m-3140 -22 c7 -7 -3 -9 -30 -4 -22 3 -50 6 -62 6 -13 0
-23 4 -23 9 0 11 102 1 115 -11z m1124 6 c2 -2 2 -7 -2 -10 -9 -9 -137 6 -137
16 0 8 129 2 139 -6z m586 -13 c24 -8 16 -9 -45 -10 -90 -1 -150 8 -150 22 0
11 147 2 195 -12z m1260 9 c3 -5 -1 -10 -10 -10 -9 0 -13 5 -10 10 3 6 8 10
10 10 2 0 7 -4 10 -10z m-1630 -21 c7 -9 -15 -10 -85 -5 -52 3 -99 11 -105 17
-7 9 15 10 85 5 52 -3 99 -11 105 -17z m1760 11 c4 -6 -5 -10 -19 -10 -14 0
-26 5 -26 10 0 6 9 10 19 10 11 0 23 -4 26 -10z m-3507 -17 c-1 -10 1 -23 5
-29 9 -15 -19 -38 -38 -30 -16 6 -21 36 -6 36 5 0 11 9 14 20 6 25 29 27 25 3z
m1435 1 c31 -3 57 -11 57 -16 0 -5 -16 -7 -37 -4 -21 3 -62 5 -90 6 -42 0 -53
3 -53 16 0 13 7 15 33 11 17 -3 58 -9 90 -13z m850 5 c67 -3 89 -19 25 -19
-61 0 -118 11 -118 22 0 5 8 7 18 4 9 -3 43 -6 75 -7z m287 -14 c0 -14 52 -57
82 -68 9 -3 19 -1 21 6 5 15 13 8 21 -19 6 -19 3 -21 -20 -16 -31 6 -124 89
-124 110 0 7 5 10 10 7 6 -3 10 -12 10 -20z m1040 15 c0 -5 -20 -10 -45 -10
-25 0 -45 5 -45 10 0 6 20 10 45 10 25 0 45 -4 45 -10z m-3546 -25 c-4 -15 -2
-25 4 -25 6 0 12 10 14 22 2 11 10 22 19 23 12 2 15 -3 11 -24 l-6 -26 -6 25
-7 25 -4 -24 c-2 -14 -10 -26 -16 -29 -16 -5 -27 22 -19 43 9 25 17 17 10 -10z
m87 -12 c-12 -20 -14 -14 -5 12 4 9 9 14 11 11 3 -2 0 -13 -6 -23z m43 -3 c-4
-19 -2 -30 5 -30 6 0 11 9 11 19 0 11 4 22 9 25 4 3 6 -6 3 -19 -2 -14 -9 -28
-14 -31 -17 -11 -31 13 -24 40 9 36 17 33 10 -4z m176 20 c24 -8 24 -8 -5 -9
-16 0 -37 4 -45 9 -12 8 -11 10 5 9 11 -1 31 -5 45 -9z m3113 0 c51 0 27 -20
-25 -21 l-53 -2 63 -9 c34 -5 62 -14 62 -18 0 -5 -29 -8 -65 -7 -66 2 -69 5
-58 45 4 18 11 22 27 18 11 -3 33 -6 49 -6z m-3221 -9 c7 10 8 8 3 -6 -4 -11
-8 -25 -8 -31 0 -6 -7 -11 -14 -11 -8 0 -11 7 -8 14 3 8 5 22 6 31 0 12 2 13
6 3 5 -11 7 -11 15 0z m1368 -1 c11 -7 2 -10 -32 -10 -27 0 -48 5 -48 10 0 13
60 13 80 0z m1531 0 c30 -8 36 -14 32 -30 -4 -15 -11 -19 -27 -15 -20 5 -20 4
2 -6 23 -13 26 -22 12 -54 -7 -18 -8 -19 -15 -2 -8 20 -41 23 -47 5 -4 -10
-14 -8 -44 4 -64 28 -158 42 -232 34 -37 -4 -82 -9 -99 -11 -18 -2 -33 -2 -33
0 0 11 215 65 259 65 16 0 32 3 34 8 8 11 116 13 158 2z m435 0 c8 0 14 -5 14
-11 0 -16 -83 -7 -88 10 -4 11 3 13 28 8 18 -4 39 -7 46 -7z m-2173 -15 c31
-4 57 -10 57 -15 0 -4 -8 -7 -17 -5 -10 2 -48 4 -85 4 -55 1 -68 4 -68 17 0
12 7 14 28 10 15 -2 53 -8 85 -11z m350 9 c62 -11 43 -27 -25 -21 -35 4 -69 6
-75 6 -7 1 -13 6 -13 11 0 11 56 13 113 4z m1095 -1 c-10 -2 -28 -2 -40 0 -13
2 -5 4 17 4 22 1 32 -1 23 -4z m767 -3 c3 -5 1 -10 -4 -10 -6 0 -11 5 -11 10
0 6 2 10 4 10 3 0 8 -4 11 -10z m65 -5 c0 -9 -9 -15 -25 -15 -16 0 -25 6 -25
15 0 9 9 15 25 15 16 0 25 -6 25 -15z m-440 -21 c0 -17 -27 -18 -33 -1 -3 7
-6 5 -6 -5 -1 -10 6 -18 14 -18 8 0 15 -9 15 -20 0 -11 -4 -20 -9 -20 -5 0
-16 -3 -24 -6 -10 -4 -14 1 -12 18 1 13 3 35 4 49 1 22 5 26 26 21 14 -2 25
-11 25 -18z m-1614 1 c71 -8 109 -25 54 -25 -88 0 -170 13 -170 27 0 11 8 13
28 9 15 -3 54 -8 88 -11z m1953 -1 c44 -9 39 -24 -8 -24 -38 0 -57 10 -44 24
8 8 13 8 52 0z m-2965 -52 c-6 -9 -20 -17 -30 -17 -25 0 -31 35 -8 52 25 18
54 -8 38 -35z m-164 28 c0 -5 -4 -10 -10 -10 -5 0 -10 5 -10 10 0 6 5 10 10
10 6 0 10 -4 10 -10z m880 -5 c0 -8 -4 -15 -10 -15 -5 0 -10 7 -10 15 0 8 5
15 10 15 6 0 10 -7 10 -15z m129 -1 c10 -9 -8 -11 -61 -7 -32 3 -55 10 -52 14
5 9 103 2 113 -7z m456 6 c143 -16 167 -19 229 -30 80 -13 83 -21 5 -15 -332
24 -399 32 -399 46 0 12 53 11 165 -1z m-325 -21 c9 -5 -6 -9 -42 -9 -53 0
-76 9 -61 23 7 8 82 -2 103 -14z m1963 -5 c-3 -8 -12 -13 -20 -10 -8 3 -28 6
-44 6 -16 0 -29 5 -29 10 0 6 22 10 50 10 41 0 48 -3 43 -16z m-3240 -1 c-7
-2 -21 -2 -30 0 -10 3 -4 5 12 5 17 0 24 -2 18 -5z m3064 -25 c-3 -7 -5 -2 -5
12 0 14 2 19 5 13 2 -7 2 -19 0 -25z m301 21 c-2 -6 -7 -10 -11 -10 -4 1 -27
1 -52 1 -25 0 -45 5 -45 10 0 6 25 10 56 10 35 0 54 -4 52 -11z m108 -10 c3
-5 -15 -9 -40 -9 -40 0 -63 10 -51 21 7 8 85 -3 91 -12z m-3376 0 c0 -6 -6 -9
-14 -6 -8 3 -16 -2 -19 -14 -4 -16 0 -19 26 -18 27 0 29 2 12 9 -19 8 -19 9 2
9 16 1 21 -4 20 -19 -1 -13 -6 -19 -15 -15 -7 3 -27 5 -43 5 -26 0 -28 2 -19
24 8 21 6 25 -13 29 -12 2 -3 5 21 6 25 0 42 -3 42 -10z m350 2 c0 -6 -9 -9
-20 -8 -11 1 -20 5 -20 9 0 4 9 8 20 8 11 0 20 -4 20 -9z m683 -11 c9 -10 0
-11 -43 -6 -30 3 -56 6 -57 6 -2 0 -3 5 -3 11 0 15 88 6 103 -11z m-1559 2 c2
-4 -4 -8 -14 -8 -10 0 -16 4 -14 8 3 4 9 8 14 8 5 0 11 -4 14 -8z m436 -2 c12
-8 12 -10 -5 -9 -11 0 -29 4 -40 9 -18 8 -18 9 5 9 14 0 32 -4 40 -9z m1190 0
c0 -5 -8 -10 -17 -10 -15 0 -16 2 -3 10 19 12 20 12 20 0z m1980 -11 c0 -5 -7
-9 -15 -9 -8 0 -15 7 -15 15 0 9 6 12 15 9 8 -4 15 -10 15 -15z m60 1 c0 -5
-12 -10 -26 -10 -14 0 -23 4 -19 10 3 6 15 10 26 10 10 0 19 -4 19 -10z m37
-16 c-9 -9 -28 6 -21 18 4 6 10 6 17 -1 6 -6 8 -13 4 -17z m-3537 -1 c19 -4
49 -8 65 -9 17 -2 41 -5 55 -7 14 -2 51 -8 83 -12 51 -7 88 -24 55 -26 -7 0
-4 -5 7 -10 14 -6 6 -7 -25 -3 -25 4 -50 10 -56 15 -6 5 -35 11 -65 13 -30 3
-99 12 -153 21 -55 8 -101 15 -103 15 -1 0 -3 4 -3 10 0 9 67 6 140 -7z m279
1 c10 -9 -56 -3 -69 7 -11 7 -4 8 25 3 22 -4 42 -8 44 -10z m971 8 c0 -14 -11
-21 -26 -15 -8 3 -11 9 -8 14 7 11 34 12 34 1z m2360 -2 c0 -5 -14 -10 -31
-10 -17 0 -28 4 -24 10 3 6 17 10 31 10 13 0 24 -4 24 -10z m-3354 -20 c13 0
24 -3 24 -8 0 -4 -18 -6 -40 -4 -22 2 -40 9 -40 14 0 6 7 7 16 4 9 -3 27 -6
40 -6z m3060 -23 c-5 -22 -8 -23 -73 -16 -37 5 -76 8 -85 8 -10 1 -18 6 -18
12 0 7 26 9 85 4 78 -7 85 -6 85 10 0 10 3 16 6 12 4 -3 4 -17 0 -30z m135 23
c10 0 19 -5 19 -11 0 -15 -63 -6 -68 10 -3 10 0 12 12 8 10 -4 26 -7 37 -7z
m-2261 -15 c0 -8 -7 -15 -15 -15 -8 0 -15 7 -15 15 0 8 7 15 15 15 8 0 15 -7
15 -15z m2320 5 c0 -5 -7 -10 -15 -10 -8 0 -15 5 -15 10 0 6 7 10 15 10 8 0
15 -4 15 -10z m110 -11 c0 -5 -22 -9 -50 -9 -44 0 -60 7 -46 21 8 8 96 -3 96
-12z m-3250 1 c12 -8 11 -10 -5 -9 -11 1 -31 5 -45 9 -24 8 -24 8 5 9 17 0 37
-4 45 -9z m177 -34 c-4 -9 -11 -16 -17 -16 -17 0 -24 31 -9 41 18 11 34 -5 26
-25z m323 19 c7 -9 10 -18 6 -22 -3 -3 -6 -1 -6 7 0 10 -3 10 -15 0 -13 -11
-14 -10 -9 6 7 19 7 19 -14 0 -24 -21 -30 -14 -9 9 16 19 32 19 47 0z m2546
-6 c3 -5 -15 -9 -40 -9 -31 0 -46 4 -46 13 0 14 76 11 86 -4z m-2506 -10 c0
-5 -4 -9 -8 -9 -5 0 -9 7 -9 15 0 8 4 12 9 9 4 -3 8 -9 8 -15z m203 4 c-7 -2
-19 -2 -25 0 -7 3 -2 5 12 5 14 0 19 -2 13 -5z m-793 -13 c0 -5 -4 -10 -10
-10 -5 0 -10 5 -10 10 0 6 5 10 10 10 6 0 10 -4 10 -10z m2890 0 c0 -5 -15
-10 -34 -10 -19 0 -38 5 -41 10 -4 6 10 10 34 10 23 0 41 -4 41 -10z m-2965
-10 c27 -7 27 -8 5 -8 -14 0 -36 4 -50 8 -20 6 -21 8 -5 8 11 0 34 -4 50 -8z
m470 0 c3 -5 -1 -10 -10 -10 -9 0 -13 5 -10 10 3 6 8 10 10 10 2 0 7 -4 10
-10z m2575 0 c0 -5 -16 -10 -35 -10 -19 0 -35 5 -35 10 0 6 16 10 35 10 19 0
35 -4 35 -10z m140 -11 c9 -5 -11 -9 -55 -10 -61 -1 -67 -2 -42 -12 41 -16 33
-29 -15 -23 -24 3 -53 5 -66 5 -14 1 -22 6 -19 14 2 7 16 11 34 9 24 -3 32 1
36 18 5 19 10 20 59 14 29 -4 60 -10 68 -15z m-3171 -15 c10 -9 -55 -3 -69 6
-10 6 -2 7 25 3 22 -3 42 -7 44 -9z m58 10 c-3 -3 -12 -4 -19 -1 -8 3 -5 6 6
6 11 1 17 -2 13 -5z m2073 -14 c0 -11 -4 -20 -10 -20 -5 0 -10 9 -10 20 0 11
5 20 10 20 6 0 10 -9 10 -20z m17 -12 c-3 -7 -5 -2 -5 12 0 14 2 19 5 13 2 -7
2 -19 0 -25z m786 22 c9 0 17 -4 17 -10 0 -5 -18 -10 -40 -10 -30 0 -40 4 -40
16 0 12 6 15 23 10 12 -3 30 -6 40 -6z m-2963 -26 c0 -2 -11 -4 -25 -4 -14 0
-25 4 -25 9 0 4 11 6 25 3 14 -2 25 -6 25 -8z m2443 3 c-2 -4 -3 -14 -3 -22 0
-10 -8 -14 -22 -11 -21 3 -24 8 -19 36 0 5 11 8 24 6 12 -1 21 -6 20 -9z
m-403 -16 c0 -5 -10 -11 -22 -13 -34 -5 -38 -55 -6 -67 21 -9 21 -10 3 -10
-45 -2 -59 45 -25 79 21 21 50 27 50 11z m578 -20 c-20 -26 -22 -27 -15 -8 5
14 2 18 -15 15 -11 -2 -23 2 -25 8 -2 6 10 8 32 6 31 -4 34 -6 23 -21z m-2630
12 c-10 -2 -26 -2 -35 0 -10 3 -2 5 17 5 19 0 27 -2 18 -5z m192 -14 c102 -16
110 -18 110 -34 0 -19 -10 -19 -145 1 -113 16 -133 24 -120 44 7 12 17 11 155
-11z m2528 8 c5 -16 1 -37 -8 -37 -5 0 -7 8 -3 18 5 15 4 14 -9 -2 -11 -14
-17 -16 -22 -7 -12 18 0 38 21 36 10 0 19 -4 21 -8z m657 2 c4 -5 -5 -21 -19
-34 l-26 -24 0 28 c0 15 3 31 7 34 10 10 31 8 38 -4z m40 -19 c7 0 16 6 18 13
3 6 6 1 6 -13 1 -38 -15 -57 -23 -28 -6 23 -6 23 -22 3 -16 -20 -16 -19 -10 5
3 14 6 32 7 40 1 11 3 10 6 -2 2 -10 11 -18 18 -18z m75 2 c0 -16 -38 -58 -45
-50 -1 2 0 18 2 36 4 23 11 32 24 32 12 0 19 -7 19 -18z m-3495 -2 c4 -7 -3
-8 -22 -4 -38 9 -42 14 -10 14 14 0 29 -5 32 -10z m515 0 c0 -5 7 -7 15 -4 8
4 15 2 15 -3 0 -5 -10 -9 -23 -9 -13 0 -24 6 -24 13 0 7 4 13 9 13 4 0 8 -4 8
-10z m2300 -1 c0 17 47 13 54 -4 3 -10 -1 -15 -12 -16 -9 0 -30 -3 -45 -5 -20
-4 -27 -1 -22 7 5 8 1 9 -14 4 -12 -3 -21 -2 -21 4 0 14 32 19 48 8 8 -6 12
-6 12 2z m-700 -33 c0 -3 -6 -6 -14 -6 -8 0 -17 -6 -19 -12 -4 -8 -6 -7 -6 4
-1 9 -7 19 -13 21 -8 3 -6 6 5 6 9 1 17 6 17 12 0 6 7 4 15 -5 8 -8 15 -17 15
-20z m-2125 14 l20 -9 -20 0 c-11 0 -27 4 -35 9 -13 9 -13 10 0 9 8 0 24 -4
35 -9z m302 -59 c-2 -9 -8 -15 -14 -14 -9 2 -189 31 -230 37 -17 3 -26 13 -20
23 3 5 64 0 137 -11 107 -16 130 -22 127 -35z m753 42 c17 -3 30 -10 30 -15 0
-7 -28 -8 -77 -4 -92 8 -113 14 -113 28 0 10 89 6 160 -9z m1865 7 c-3 -5 -12
-10 -18 -10 -7 0 -6 4 3 10 19 12 23 12 15 0z m-2915 -16 c0 -2 -11 -4 -25 -4
-14 0 -25 4 -25 9 0 4 11 6 25 3 14 -2 25 -6 25 -8z m2318 -27 c38 -79 -56
-156 -108 -90 -41 52 -4 126 59 121 28 -2 39 -9 49 -31z m759 -9 c-3 -7 -5 -2
-5 12 0 14 2 19 5 13 2 -7 2 -19 0 -25z m-3090 15 c-13 -3 -15 -8 -7 -17 8
-10 4 -12 -17 -8 -16 3 -22 7 -14 10 11 4 11 6 0 13 -9 6 -2 8 21 8 19 -1 27
-3 17 -6z m891 -5 c111 -15 108 -33 -5 -24 -102 8 -133 15 -133 27 0 12 39 11
138 -3z m-703 -18 c103 -16 106 -17 99 -33 -4 -11 -25 -10 -122 6 -64 11 -119
21 -121 23 -11 10 16 25 38 21 14 -3 62 -11 106 -17z m2956 7 c-1 -12 -15 -9
-19 4 -3 6 1 10 8 8 6 -3 11 -8 11 -12z m-412 -23 c24 -30 26 -52 10 -87 -11
-25 -47 -47 -74 -47 -28 0 -55 38 -55 77 0 74 77 111 119 57z m-329 6 c0 -5
-7 -7 -15 -4 -8 4 -15 8 -15 10 0 2 7 4 15 4 8 0 15 -4 15 -10z m-2415 -10
c13 -5 14 -9 5 -9 -8 0 -24 4 -35 9 -13 5 -14 9 -5 9 8 0 24 -4 35 -9z m2478
3 c-7 -2 -21 -2 -30 0 -10 3 -4 5 12 5 17 0 24 -2 18 -5z m47 -3 c12 -8 11
-10 -7 -10 -13 0 -23 5 -23 10 0 13 11 13 30 0z m-2347 -21 c48 -7 87 -16 87
-20 0 -4 9 -5 20 -2 19 5 29 -11 13 -20 -9 -5 -191 20 -213 30 -8 3 -23 5 -32
4 -11 -1 -18 4 -18 14 0 13 7 15 28 11 15 -2 66 -10 115 -17z m1368 -32 c-8
-8 -11 -4 -11 14 0 33 14 47 18 19 2 -12 -1 -27 -7 -33z m1544 -9 c-4 -35 -12
-67 -17 -73 -7 -7 -8 0 -5 20 3 17 9 49 12 73 10 65 18 50 10 -20z m-2097 27
c6 -2 12 -8 12 -13 0 -8 -138 3 -147 12 -22 21 76 22 135 1z m1442 17 c0 -5
-13 -7 -30 -4 -16 2 -30 6 -30 8 0 2 14 4 30 4 17 0 30 -4 30 -8z m-2433 -8
c-3 -3 -12 -4 -19 -1 -8 3 -5 6 6 6 11 1 17 -2 13 -5z m2533 -4 c10 -7 -1 -8
-35 -4 -27 4 -52 8 -54 10 -10 9 75 3 89 -6z m320 -10 c0 -5 -14 -7 -32 -3
-46 8 -48 13 -5 13 21 0 37 -4 37 -10z m-2867 -7 c-7 -2 -19 -2 -25 0 -7 3 -2
5 12 5 14 0 19 -2 13 -5z m201 -21 c55 -10 101 -23 104 -30 2 -7 -6 -12 -19
-12 -40 0 -209 33 -209 41 0 4 -9 5 -20 2 -11 -3 -20 -1 -20 4 0 17 12 22 39
17 14 -3 71 -13 125 -22z m2256 18 c10 -6 2 -7 -25 -3 -49 7 -58 13 -19 13 16
0 36 -5 44 -10z m463 3 c-7 -2 -21 -2 -30 0 -10 3 -4 5 12 5 17 0 24 -2 18 -5z
m-1458 -38 c274 -36 302 -41 292 -51 -8 -8 -570 67 -581 77 -14 13 -8 12 289
-26z m1735 25 c0 -5 -7 -7 -15 -4 -8 4 -15 8 -15 10 0 2 7 4 15 4 8 0 15 -4
15 -10z m210 -34 c0 -6 -7 -1 -15 10 -8 10 -15 23 -15 28 0 6 7 1 15 -10 8
-10 15 -23 15 -28z m-461 18 c9 -8 -85 -2 -104 7 -13 6 0 7 40 3 33 -4 62 -8
64 -10z m-1971 -10 c114 -18 156 -35 82 -33 -81 1 -213 24 -218 37 -5 16 8 15
136 -4z m267 -3 c33 -5 83 -13 110 -16 322 -43 386 -52 392 -58 16 -17 12 -17
-454 49 -68 10 -123 21 -123 26 0 10 1 10 75 -1z m1625 -10 c0 -5 -9 -7 -20
-4 -11 3 -20 7 -20 9 0 2 9 4 20 4 11 0 20 -4 20 -9z m423 2 c-7 -2 -19 -2
-25 0 -7 3 -2 5 12 5 14 0 19 -2 13 -5z m-386 -9 c-3 -3 -12 -4 -19 -1 -8 3
-5 6 6 6 11 1 17 -2 13 -5z m-1864 -50 c45 -6 67 -24 30 -24 -31 0 -316 39
-320 44 -3 3 -2 9 1 14 3 5 53 2 123 -9 65 -10 139 -21 166 -25z m1056 -89
c44 -17 -20 -13 -215 14 -121 17 -235 33 -254 35 -85 11 -408 57 -432 62 -16
3 -28 9 -28 13 0 7 901 -113 929 -124z m-452 32 c395 -56 467 -69 452 -80 -7
-6 -927 128 -935 136 -13 12 30 8 483 -56z m1440 26 c-3 -10 -5 -4 -5 12 0 17
2 24 5 18 2 -7 2 -21 0 -30z m-2169 -9 c62 -9 115 -20 118 -25 8 -13 -47 -11
-156 6 -52 8 -98 15 -102 15 -5 0 -8 7 -8 16 0 10 6 14 18 10 9 -2 68 -12 130
-22z m742 -55 c239 -34 437 -63 439 -65 18 -16 -62 -7 -461 50 -250 36 -459
66 -466 66 -7 0 -12 5 -12 11 0 7 12 9 33 6 17 -4 228 -34 467 -68z m-350 16
c264 -35 771 -112 777 -118 3 -4 -5 -7 -18 -7 -21 0 -499 68 -806 114 -57 9
-105 16 -108 16 -3 0 -5 5 -5 10 0 6 10 8 23 5 12 -3 74 -12 137 -20z m1269
-2 c0 -16 -4 -37 -9 -48 -6 -15 -9 -8 -9 28 -1 26 4 47 9 47 6 0 10 -12 9 -27z
m511 17 c0 -5 -5 -10 -11 -10 -8 0 -8 -4 1 -15 14 -17 5 -35 -18 -35 -14 0
-14 2 -3 9 7 5 10 14 6 20 -4 7 -4 18 -1 26 6 17 26 20 26 5z m-579 -83 c-13
-13 -15 41 -3 70 5 13 8 8 10 -21 2 -21 -1 -43 -7 -49z m615 70 c12 17 13 16
14 -7 1 -21 2 -22 10 -8 6 10 23 16 46 16 22 0 32 -3 24 -8 -7 -4 -9 -13 -6
-19 4 -6 3 -11 -3 -11 -5 0 -12 -8 -14 -17 -3 -11 -6 -6 -7 12 -2 30 -2 30
-10 5 -8 -25 -8 -25 -10 5 l-2 30 -10 -27 c-11 -31 -28 -37 -29 -10 0 10 -3
12 -6 5 -9 -25 -23 -13 -22 20 1 18 3 24 6 14 5 -18 5 -18 19 0z m144 -7 c10
-6 11 -10 3 -10 -7 0 -13 -9 -13 -19 0 -11 -4 -22 -9 -25 -5 -3 -9 10 -8 29 1
38 4 40 27 25z m-419 -48 c-4 -50 -21 -66 -21 -20 0 40 9 72 18 63 4 -3 5 -23
3 -43z m-500 -7 c-9 -30 -9 -30 -10 10 -1 25 2 36 9 29 6 -6 6 -21 1 -39z
m100 -28 c-13 -13 -15 21 -3 50 6 15 8 13 10 -11 2 -16 -1 -33 -7 -39z m454 9
c-4 -25 -12 -46 -17 -46 -9 0 -2 74 9 93 11 18 14 -4 8 -47z m-664 -3 c-9 -16
-10 -15 -11 8 0 14 3 29 8 33 12 12 14 -22 3 -41z m50 4 c-8 -8 -11 -5 -11 9
0 27 14 41 18 19 2 -9 -1 -22 -7 -28z m113 -4 c-10 -40 -14 -41 -14 -5 0 18 5
32 10 32 6 0 8 -11 4 -27z m663 -5 c-3 -8 -6 -5 -6 6 -1 11 2 17 5 13 3 -3 4
-12 1 -19z m-391 -10 c-3 -13 -6 -30 -6 -38 0 -12 -2 -12 -9 -2 -10 17 -2 62
11 62 6 0 8 -10 4 -22z m-1748 -8 c65 -12 481 -81 926 -155 445 -74 811 -136
812 -138 2 -1 -1 -9 -6 -17 -7 -11 -10 -11 -10 -2 0 8 -9 11 -27 7 -23 -4 -25
-4 -8 4 18 9 17 10 -8 10 -16 1 -26 -4 -25 -11 2 -8 -13 -13 -42 -14 -33 -1
-40 1 -25 7 15 6 10 8 -20 6 -64 -3 -190 14 -174 24 9 6 10 9 2 9 -6 0 -15 -4
-18 -10 -3 -5 -11 -10 -16 -10 -6 0 -7 5 -3 12 5 7 2 9 -7 6 -8 -3 -70 3 -139
13 -181 28 -241 32 -125 10 55 -11 109 -22 120 -24 11 -2 76 -13 145 -22 69
-10 127 -22 130 -26 3 -3 19 -6 35 -6 37 0 95 -10 103 -17 12 -13 -30 -16 -79
-6 -30 6 -74 13 -99 15 -68 6 -111 15 -106 23 8 14 -128 9 -142 -5 -15 -14
-46 -16 -107 -4 -38 6 -39 8 -18 19 13 7 39 9 66 6 24 -4 47 -2 50 2 3 5 -23
10 -56 11 -36 2 -66 8 -72 15 -6 7 -36 14 -69 15 -33 1 -62 7 -66 13 -4 6 -13
8 -21 5 -8 -3 -37 0 -64 5 -28 6 -70 13 -95 16 -66 6 -92 13 -85 24 4 6 -2 7
-17 1 -24 -9 -86 -4 -103 9 -5 4 -32 8 -58 8 -26 1 -53 5 -60 9 -7 4 -34 9
-60 10 -27 1 -56 5 -65 9 -9 4 -39 8 -66 10 -28 2 -52 7 -55 11 -3 5 -28 9
-56 11 -27 1 -52 6 -55 10 -3 4 -26 8 -52 9 -26 1 -53 5 -60 9 -6 4 -38 9 -71
11 -52 3 -58 1 -47 -12 10 -13 9 -15 -9 -15 -14 0 -20 4 -15 11 6 11 -26 7
-81 -8 -19 -6 -19 -6 3 -14 12 -5 30 -5 39 -2 10 4 14 2 10 -4 -4 -7 -31 -10
-70 -7 -63 4 -60 1 23 -25 29 -9 22 -10 -45 -5 -44 3 -91 7 -105 10 -18 4 -21
3 -11 -4 8 -6 50 -16 93 -23 65 -11 76 -15 56 -22 -15 -5 -61 -2 -131 9 -59 9
-110 14 -114 10 -3 -3 7 -6 23 -7 l29 -1 -30 -14 c-20 -9 -49 -12 -85 -9 -38
3 -49 2 -35 -4 11 -5 33 -10 49 -10 16 -1 45 -5 65 -10 72 -18 147 -34 171
-37 14 -1 59 -9 100 -17 147 -29 397 -78 485 -97 50 -10 111 -22 137 -25 26
-3 50 -11 54 -16 3 -5 14 -7 24 -4 10 3 21 2 24 -3 3 -5 18 -8 33 -6 23 4 25
3 8 -4 -16 -7 -9 -11 35 -17 30 -4 65 -11 78 -16 13 -5 22 -5 22 1 0 6 8 10
18 10 13 0 14 -2 4 -9 -10 -6 -9 -10 7 -14 12 -3 19 -1 15 5 -4 5 2 5 12 -1
11 -6 39 -16 64 -22 27 -8 38 -14 27 -16 -9 -3 -15 -9 -12 -14 8 -12 75 -12
75 1 0 6 4 10 8 10 5 0 9 -7 9 -15 0 -15 -33 -19 -122 -16 -28 1 -29 0 -7 -9
13 -5 20 -14 17 -20 -8 -13 -35 -13 -35 0 0 21 -57 10 -85 -16 l-29 -26 35 6
c19 3 27 3 19 -1 -8 -3 -21 -12 -28 -20 -19 -19 -43 -17 -35 3 5 14 3 15 -15
5 -12 -7 -22 -16 -22 -21 0 -4 -24 -27 -52 -50 -45 -35 -48 -40 -24 -34 24 6
27 4 24 -12 -2 -11 -15 -21 -33 -25 -17 -4 -22 -7 -12 -8 9 0 17 -6 17 -12 0
-7 -7 -8 -17 -4 -10 5 -34 9 -53 11 -19 2 -26 1 -15 -2 11 -3 29 -9 40 -14 11
-6 48 -16 82 -24 52 -12 62 -12 67 0 3 8 12 11 21 7 13 -4 14 -8 4 -14 -9 -5
-4 -10 17 -14 16 -4 37 -9 46 -11 35 -10 147 19 265 69 99 41 120 53 111 64
-8 10 -8 17 0 25 14 14 46 2 39 -15 -3 -8 33 2 92 26 131 53 174 67 181 60 3
-3 0 -8 -6 -10 -7 -2 -10 -12 -7 -21 3 -14 -45 -39 -263 -135 -273 -121 -345
-143 -418 -132 -37 6 -577 127 -846 190 -167 39 -293 68 -653 151 -187 43
-334 80 -329 82 6 2 36 -4 68 -12 43 -11 61 -12 69 -4 7 8 5 9 -6 5 -9 -3 -22
-1 -30 4 -11 7 -10 9 6 10 11 1 31 0 45 -1 48 -4 14 8 -95 35 -95 23 -353 84
-422 100 -13 3 -23 11 -23 18 0 7 183 62 493 147 270 74 557 153 637 176 171
50 228 53 398 24z m1692 -9 c0 -11 -4 -23 -10 -26 -6 -4 -10 5 -10 19 0 14 5
26 10 26 6 0 10 -9 10 -19z m164 -8 c-8 -32 -12 -39 -19 -31 -9 8 6 58 16 58
5 0 6 -12 3 -27z m-55 0 c0 -5 -4 -17 -9 -28 -8 -18 -9 -17 -9 8 -1 15 4 27 9
27 6 0 10 -3 9 -7z m328 -35 c-3 -8 -6 -5 -6 6 -1 11 2 17 5 13 3 -3 4 -12 1
-19z m-2172 -48 c18 -1 19 -1 3 -11 -10 -5 -34 -7 -55 -3 -31 6 -34 8 -18 14
11 4 27 6 35 4 8 -1 24 -3 35 -4z m2162 -32 c-3 -7 -5 -2 -5 12 0 14 2 19 5
13 2 -7 2 -19 0 -25z m-2052 13 c19 -8 19 -8 -2 -15 -12 -4 -39 -4 -60 0 -31
6 -34 8 -18 15 25 10 55 10 80 0z m-248 -7 c-3 -3 -12 -4 -19 -1 -8 3 -5 6 6
6 11 1 17 -2 13 -5z m126 -16 c-2 -5 -28 -8 -56 -7 -38 0 -47 3 -32 9 24 10
95 8 88 -2z m242 3 c17 -7 16 -9 -12 -15 -41 -9 -102 2 -82 15 17 11 67 10 94
0z m-317 -36 c3 -3 -13 -5 -36 -5 -31 0 -40 3 -36 14 4 11 13 12 36 5 17 -4
33 -11 36 -14z m187 15 c-3 -5 -32 -10 -63 -10 -41 0 -53 3 -42 10 20 13 113
13 105 0z m240 1 c17 -7 16 -8 -8 -15 -36 -9 -104 3 -85 15 16 11 66 10 93 0z
m-120 -16 c27 -8 -46 -21 -85 -15 -40 6 -43 8 -22 16 20 9 79 8 107 -1z m-189
-16 c3 -5 -18 -9 -46 -9 -41 0 -48 3 -39 13 13 14 76 11 85 -4z m429 12 c18
-7 16 -9 -12 -15 -40 -9 -111 3 -91 15 16 11 76 10 103 0z m-126 -17 c11 -10
-52 -22 -89 -17 -39 6 -41 7 -24 20 13 9 32 12 64 7 25 -4 47 -8 49 -10z
m-670 -10 c12 -11 -60 -24 -99 -18 l-45 7 35 13 c30 10 96 9 109 -2z m211 -6
c-14 -5 -41 -6 -60 -2 -48 9 -15 21 43 15 39 -3 40 -4 17 -13z m270 5 c8 -4
35 -8 60 -10 65 -5 81 -13 51 -24 -29 -12 -113 -1 -105 13 4 5 -6 9 -22 7 -16
-1 -44 -1 -63 -1 -33 2 -34 3 -15 16 18 14 56 13 94 -1z m435 8 c16 -7 15 -9
-12 -14 -40 -8 -109 3 -91 14 16 11 76 10 103 0z m-126 -17 c11 -10 -52 -22
-88 -17 -34 5 -39 8 -30 19 9 11 25 13 63 8 28 -4 53 -8 55 -10z m-711 -4 c6
0 12 -4 12 -9 0 -12 -48 -20 -88 -14 l-34 6 28 13 c16 7 38 11 49 9 11 -3 26
-5 33 -5z m257 -11 c-25 -10 -68 -11 -91 -2 -16 6 -16 7 -1 12 9 4 38 4 64 2
36 -3 43 -6 28 -12z m700 12 c17 -7 17 -8 -8 -15 -15 -3 -46 -3 -69 0 -34 6
-38 9 -23 15 26 10 74 10 100 0z m-135 -18 c26 -10 -30 -21 -85 -17 l-50 4 44
-11 c38 -9 42 -12 27 -21 -10 -6 -40 -8 -67 -5 -33 4 -58 1 -79 -9 -22 -12
-44 -14 -82 -9 -49 7 -50 8 -28 20 15 8 44 11 75 8 42 -4 59 1 105 25 53 29
91 33 140 15z m247 -16 c-28 -10 -105 2 -86 14 8 4 29 8 46 7 18 -1 36 2 40 6
4 3 10 1 14 -6 5 -8 0 -16 -14 -21z m-698 13 c14 0 14 -2 1 -10 -19 -12 -97
-13 -105 -1 -7 13 23 20 59 15 16 -2 36 -4 45 -4z m251 -6 c34 -7 35 -7 10
-16 -14 -5 -43 -7 -66 -3 -26 4 -53 0 -77 -10 -25 -10 -50 -13 -78 -9 -38 6
-40 8 -24 20 12 9 35 12 69 8 35 -3 59 0 76 9 14 8 32 13 40 12 8 -2 31 -7 50
-11z m-475 -3 c29 -7 28 -8 -17 -15 -26 -5 -53 -6 -60 -3 -7 3 3 6 22 7 32 2
33 3 10 10 -20 6 -21 8 -5 8 11 0 34 -4 50 -7z m-102 -8 c-7 -2 -21 -2 -30 0
-10 3 -4 5 12 5 17 0 24 -2 18 -5z m907 -3 c3 -1 -5 -5 -18 -10 -28 -12 -119
-1 -100 12 10 7 94 6 118 -2z m275 1 c6 -1 3 -6 -5 -11 -19 -12 -90 -13 -90
-1 0 5 -10 7 -22 5 -21 -4 -22 -4 -3 5 16 7 74 8 120 2z m-890 -22 c66 -12
208 -38 315 -58 l194 -37 -48 -14 c-46 -13 -63 -10 -348 46 -270 53 -297 60
-271 71 36 15 20 16 158 -8z m695 2 c0 -4 12 -7 28 -4 27 3 27 3 3 -7 -29 -13
-121 -2 -100 11 18 11 69 11 69 0z m327 -5 c15 -14 -46 -24 -93 -14 -39 9 -45
12 -29 18 22 9 112 6 122 -4z m-494 -3 c26 -4 34 -9 25 -14 -16 -10 -73 -11
-107 -2 -23 6 -23 7 -5 14 25 10 40 10 87 2z m-158 -15 c20 -1 38 -5 41 -9 7
-13 -56 -21 -104 -14 l-47 7 30 13 c17 7 33 10 37 8 4 -2 23 -4 43 -5z m488 2
c10 0 15 -4 12 -10 -7 -11 -67 -13 -103 -3 -36 9 -5 25 38 18 19 -2 43 -5 53
-5z m-184 -16 c12 -10 -14 -17 -56 -15 -52 2 -64 8 -43 21 13 8 88 3 99 -6z
m1048 -6 c-3 -8 -6 -5 -6 6 -1 11 2 17 5 13 3 -3 4 -12 1 -19z m56 15 c-7 -2
-19 -2 -25 0 -7 3 -2 5 12 5 14 0 19 -2 13 -5z m-770 -23 c13 -12 -41 -21 -81
-14 -49 9 -60 16 -36 25 21 9 104 1 117 -11z m287 3 c11 -3 8 -8 -11 -18 -18
-10 -36 -11 -65 -5 -43 10 -88 12 -65 3 9 -4 4 -10 -16 -18 -22 -9 -43 -10
-86 -2 -53 10 -55 11 -33 22 14 8 43 11 68 8 30 -4 55 0 74 10 27 15 90 15
134 0z m543 10 c-7 -2 -19 -2 -25 0 -7 3 -2 5 12 5 14 0 19 -2 13 -5z m-1328
-11 l40 -8 -31 -11 c-38 -14 -144 4 -109 18 25 10 49 10 100 1z m290 -12 c17
-4 22 -8 13 -9 -9 0 -24 -4 -34 -8 -13 -5 -15 -3 -9 8 7 11 6 12 -6 2 -8 -7
-20 -8 -28 -4 -7 5 -23 6 -35 4 -17 -4 -18 -3 -6 6 17 12 60 12 105 1z m1158
3 c-7 -2 -19 -2 -25 0 -7 3 -2 5 12 5 14 0 19 -2 13 -5z m87 3 c0 -2 -8 -10
-17 -17 -16 -13 -17 -12 -4 4 13 16 21 21 21 13z m-1414 -16 c19 0 34 -4 34
-9 0 -15 -45 -21 -95 -14 -46 6 -46 7 -24 19 13 7 30 11 37 9 8 -3 29 -5 48
-5z m859 -14 l50 -13 -36 -8 c-20 -4 -71 -1 -112 5 -66 11 -78 10 -98 -4 -13
-9 -37 -16 -54 -17 -24 -1 -22 -3 15 -10 25 -5 50 -7 55 -5 6 3 -1 5 -15 6
l-25 1 29 15 c27 15 45 15 131 -3 l30 -6 -29 -12 c-17 -7 -48 -11 -70 -9 -35
3 -37 2 -11 -4 29 -8 30 -8 8 -20 -12 -7 -31 -12 -42 -12 -12 0 -21 -4 -21 -8
0 -4 -15 -13 -33 -20 -28 -10 -49 -9 -128 8 -52 11 -119 25 -149 31 -51 11
-53 12 -30 22 14 6 27 10 31 9 3 0 30 -3 60 -6 29 -3 94 -14 142 -25 49 -10
85 -15 80 -11 -4 4 -37 13 -73 19 -86 16 -105 22 -92 30 5 3 -27 6 -71 7 -50
1 -85 -3 -89 -10 -8 -12 -124 -13 -135 -2 -15 15 24 25 73 20 36 -5 59 -2 82
10 27 14 41 15 89 5 32 -6 81 -12 108 -14 28 -2 35 -1 18 2 -18 2 -33 8 -33
13 0 16 41 22 97 15 36 -4 53 -3 49 3 -15 25 105 23 199 -2z m660 -1 c0 -30
-39 -27 -43 3 -3 20 0 23 20 20 15 -2 23 -10 23 -23z m-1210 7 l40 -8 -32 -11
c-20 -7 -45 -8 -69 -3 -21 5 -41 7 -45 4 -4 -2 -10 0 -13 5 -12 18 52 25 119
13z m-138 -25 c10 -11 -67 -19 -104 -12 -32 6 -35 9 -18 15 21 9 112 6 122 -3z
m900 -3 c8 -21 -13 -42 -28 -27 -13 13 -5 43 11 43 6 0 13 -7 17 -16z m-1085
-8 c24 0 12 -9 -30 -21 -24 -7 -53 -8 -82 -2 l-45 9 30 13 c19 9 45 11 70 8
22 -4 48 -7 57 -7z m103 -22 l47 -7 -33 -14 c-23 -9 -51 -12 -93 -7 l-61 7 35
13 c43 15 46 16 105 8z m775 2 c0 -2 -7 -7 -16 -10 -8 -3 -12 -2 -9 4 6 10 25
14 25 6z m-605 -29 c29 0 29 -1 -12 -19 -36 -16 -49 -17 -94 -7 l-53 11 30 13
c16 8 44 11 64 8 19 -4 49 -6 65 -6z m908 6 c-13 -2 -23 -12 -23 -20 0 -9 -3
-14 -6 -10 -13 13 6 37 28 36 l23 -2 -22 -4z m11 -22 c3 -5 -1 -11 -9 -14 -9
-4 -12 -1 -8 9 6 16 10 17 17 5z m-789 -10 c25 -5 34 -10 25 -14 -8 -4 -40 0
-70 7 -41 10 -47 14 -25 14 17 1 48 -3 70 -7z m-25 -34 c0 -5 -12 -6 -27 -3
-16 3 -46 8 -68 12 -29 5 -35 9 -21 14 22 8 116 -11 116 -23z m154 10 l58 -12
-37 -18 c-32 -15 -45 -16 -96 -6 -56 11 -81 29 -40 29 11 0 23 5 26 10 8 12
16 12 89 -3z m-334 -27 c0 -5 -4 -10 -10 -10 -5 0 -10 5 -10 10 0 6 5 10 10
10 6 0 10 -4 10 -10z m70 -10 c0 -5 8 -10 18 -10 11 0 8 -5 -12 -15 -15 -8
-40 -15 -55 -14 -23 1 -23 2 7 9 34 8 54 20 34 20 -7 0 -12 5 -12 10 0 6 5 10
10 10 6 0 10 -4 10 -10z m675 -40 c0 -8 -12 -17 -27 -21 -27 -7 -27 -7 -11 17
16 26 38 28 38 4z m-145 -62 c0 -6 -7 -7 -16 -4 -9 3 -22 6 -30 6 -9 0 -13 4
-10 9 7 11 56 2 56 -11z m40 7 c0 -2 -6 -5 -13 -8 -8 -3 -14 1 -14 8 0 7 6 11
14 8 7 -3 13 -6 13 -8z m-69 -28 c-7 -7 -14 -8 -21 -1 -6 6 -2 10 12 11 16 2
18 -1 9 -10z m639 3 c0 -5 -4 -10 -10 -10 -5 0 -10 5 -10 10 0 6 5 10 10 10 6
0 10 -4 10 -10z m-2382 -71 c-2 -6 -8 -10 -13 -10 -5 0 -11 4 -13 10 -2 6 4
11 13 11 9 0 15 -5 13 -11z m2222 1 c0 -5 -4 -10 -10 -10 -5 0 -10 5 -10 10 0
6 5 10 10 10 6 0 10 -4 10 -10z m-580 -110 c0 -5 -4 -10 -10 -10 -5 0 -10 5
-10 10 0 6 5 10 10 10 6 0 10 -4 10 -10z"/>
<path d="M6056 3044 c10 -8 13 -13 7 -9 -7 3 -13 2 -13 -3 0 -6 7 -12 15 -16
8 -3 15 -13 15 -21 0 -9 -4 -14 -9 -11 -5 3 -12 -1 -15 -10 -9 -24 -3 -26 22
-8 40 27 24 94 -22 94 -20 0 -20 0 0 -16z"/>
<path d="M4080 2745 c0 -8 2 -15 4 -15 2 0 6 7 10 15 3 8 1 15 -4 15 -6 0 -10
-7 -10 -15z"/>
<path d="M4430 2751 c0 -5 7 -12 16 -15 14 -5 15 -4 4 9 -14 17 -20 19 -20 6z"/>
<path d="M4109 2728 c-1 -2 -2 -14 -4 -28 -1 -14 -5 -40 -9 -59 -5 -21 -5 -31
2 -27 5 3 12 24 16 46 3 22 11 40 16 40 6 0 8 -16 4 -42 -5 -27 -4 -39 3 -35
19 12 21 69 4 89 -14 16 -28 23 -32 16z"/>
<path d="M4184 2654 c-6 -24 -7 -44 -3 -44 9 0 28 79 20 84 -4 3 -11 -15 -17
-40z"/>
<path d="M4140 2589 c0 -5 5 -7 10 -4 6 3 10 8 10 11 0 2 -4 4 -10 4 -5 0 -10
-5 -10 -11z"/>
<path d="M4387 2645 c-4 -8 -2 -17 3 -20 6 -4 10 -4 10 -1 0 2 3 11 6 20 3 9
2 16 -4 16 -5 0 -12 -7 -15 -15z"/>
<path d="M7340 2629 c0 -5 5 -7 10 -4 6 3 10 8 10 11 0 2 -4 4 -10 4 -5 0 -10
-5 -10 -11z"/>
<path d="M4635 2640 c-3 -5 -1 -10 4 -10 6 0 11 5 11 10 0 6 -2 10 -4 10 -3 0
-8 -4 -11 -10z"/>
<path d="M6400 2599 c0 -5 -4 -8 -9 -5 -5 3 -14 -1 -22 -10 -10 -12 -9 -18 7
-34 14 -14 23 -17 34 -9 12 8 11 9 -5 7 -12 -2 -19 2 -17 10 1 8 -2 11 -8 7
-5 -3 -10 -2 -10 4 0 18 19 22 28 5 8 -14 10 -12 10 9 0 15 -2 27 -4 27 -2 0
-4 -5 -4 -11z"/>
<path d="M6411 2503 c8 -13 20 -23 28 -23 8 0 12 1 10 3 -2 1 -15 11 -28 22
l-24 20 14 -22z"/>
<path d="M3968 1863 c6 -2 18 -2 25 0 6 3 1 5 -13 5 -14 0 -19 -2 -12 -5z"/>
<path d="M7330 1750 c0 -5 5 -10 11 -10 5 0 7 5 4 10 -3 6 -8 10 -11 10 -2 0
-4 -4 -4 -10z"/>
<path d="M7440 1740 c0 -5 5 -10 10 -10 6 0 10 5 10 10 0 6 -4 10 -10 10 -5 0
-10 -4 -10 -10z"/>
<path d="M6256 1603 c-6 -14 -5 -15 5 -6 7 7 10 15 7 18 -3 3 -9 -2 -12 -12z"/>
<path d="M6360 1013 c19 -10 36 -16 38 -12 4 8 65 -2 79 -13 7 -5 14 -5 18 1
6 11 -16 18 -75 25 -19 2 -48 7 -65 11 -29 7 -29 6 5 -12z"/>
<path d="M6328 1003 c7 -3 16 -2 19 1 4 3 -2 6 -13 5 -11 0 -14 -3 -6 -6z"/>
<path d="M3913 775 c0 -7 8 -10 19 -7 10 2 18 6 18 7 0 1 -8 5 -18 7 -11 3
-19 0 -19 -7z"/>
<path d="M5258 553 c7 -3 16 -2 19 1 4 3 -2 6 -13 5 -11 0 -14 -3 -6 -6z"/>
</g>
</svg>
