<?xml version="1.0" standalone="no"?>
<!DOCTYPE svg PUBLIC "-//W3C//DTD SVG 20010904//EN"
 "http://www.w3.org/TR/2001/REC-SVG-20010904/DTD/svg10.dtd">
<svg version="1.0" xmlns="http://www.w3.org/2000/svg"
 width="360.000000pt" height="360.000000pt" viewBox="0 0 360.000000 360.000000"
 preserveAspectRatio="xMidYMid meet">

<g transform="translate(0.000000,360.000000) scale(0.100000,-0.100000)"
fill="#000000" stroke="none">
<path d="M2085 2584 c-148 -23 -396 -87 -383 -99 2 -2 40 7 85 20 214 62 454
70 610 21 145 -47 258 -143 299 -256 9 -25 20 -94 25 -155 10 -134 10 -135 21
-129 5 3 6 9 3 14 -3 5 -1 11 5 15 6 4 10 -7 11 -27 1 -25 5 -17 16 32 56 249
-96 475 -367 544 -64 16 -267 29 -325 20z m682 -546 c-3 -8 -6 -5 -6 6 -1 11
2 17 5 13 3 -3 4 -12 1 -19z"/>
<path d="M2000 2464 c-14 -2 -59 -9 -100 -15 -102 -15 -285 -76 -400 -134
-351 -175 -627 -462 -679 -704 -17 -82 -14 -191 10 -266 35 -113 118 -181 271
-222 83 -22 275 -21 383 2 108 22 271 77 342 115 32 17 49 28 38 24 -11 -4
-56 -19 -100 -35 -127 -44 -228 -62 -360 -62 -176 -1 -295 40 -374 130 -235
267 150 821 731 1052 143 57 281 85 415 86 130 0 132 7 8 24 -74 11 -134 12
-185 5z"/>
<path d="M1530 2168 l-124 -63 -91 -335 c-51 -184 -95 -347 -99 -362 l-6 -28
118 0 119 0 42 158 c50 184 181 683 181 688 0 10 -24 -1 -140 -58z"/>
<path d="M1785 2218 c-3 -7 -16 -52 -29 -100 l-24 -88 130 0 c120 0 130 -1
123 -17 -3 -10 -42 -150 -87 -312 -44 -162 -82 -301 -85 -308 -4 -10 20 -13
116 -13 67 0 121 2 121 4 0 2 34 134 75 292 41 158 72 290 70 293 -3 2 -5 -1
-5 -7 0 -7 -5 -12 -11 -12 -7 0 -9 10 -4 28 6 25 5 26 -8 8 -14 -19 -17 -17
-71 37 -31 31 -62 57 -69 57 -7 0 -20 8 -28 18 -28 31 -88 82 -98 82 -5 0 -11
7 -15 15 -3 8 -16 16 -28 17 -13 0 -3 4 22 8 43 7 41 7 -23 8 -46 2 -69 -2
-72 -10z"/>
<path d="M2201 2004 c0 -11 3 -14 6 -6 3 7 2 16 -1 19 -3 4 -6 -2 -5 -13z"/>
<path d="M2557 1786 c-5 -12 -3 -15 5 -10 8 5 9 1 4 -12 -5 -14 -4 -16 4 -7 8
7 9 17 3 28 -9 16 -10 16 -16 1z"/>
<path d="M2527 1731 c-73 -124 -267 -315 -431 -425 -232 -156 -471 -245 -741
-276 -80 -9 -80 -9 30 -5 388 13 828 234 1094 550 69 81 91 114 91 135 0 7 -7
10 -15 7 -8 -4 -17 -1 -21 5 -4 7 -3 8 4 4 8 -5 12 0 12 13 0 27 -2 26 -23 -8z
m27 -34 c4 4 4 -1 0 -11 -5 -14 -9 -15 -15 -4 -8 12 -13 4 -10 -15 1 -5 -3 -6
-9 -2 -8 5 -8 11 -1 19 6 7 7 17 3 22 -4 4 0 3 9 -4 9 -6 19 -9 23 -5z"/>
</g>
</svg>
